<?xml version="1.0" encoding="UTF-8"?>
<svg width="690px" height="308px" viewBox="0 0 690 308" version="1.1" xmlns="http://www.w3.org/2000/svg" xmlns:xlink="http://www.w3.org/1999/xlink">
    <defs>
        <polygon id="path-1" points="332.096693 0.263 0.217 0.263 0.217 244.998 332.096693 244.998 332.096693 0.263"></polygon>
    </defs>
    <g id="Page-1" stroke="none" stroke-width="1" fill="none" fill-rule="evenodd">
        <g id="Artboard">
            <g id="zappos_logo_color">
                <g id="Group-4" transform="translate(357.000000, 0.000000)">
                    <mask id="mask-2" fill="white">
                        <use xlink:href="#path-1"></use>
                    </mask>
                    <g id="Clip-2"></g>
                    <path d="M105.378,205.27 C103.581,207.816 102.677,211.135 102.677,215.45 C102.677,224.837 106.1,229.53 112.772,229.53 C115.842,229.53 118.367,228.17 120.173,225.82 C121.974,223.474 122.873,219.94 122.873,215.45 C122.873,206.246 119.45,201.75 112.772,201.75 C109.711,201.75 107.183,202.92 105.378,205.27 Z M86.804,198.033 L82.648,205.27 C80.305,202.92 77.239,201.934 73.268,201.934 C69.48,201.934 66.596,203.119 64.431,205.656 C62.269,208.203 61.182,211.528 61.182,216.027 C61.182,224.837 65.33,229.344 73.812,229.344 C77.604,229.344 80.848,227.972 83.558,225.628 L87.162,233.444 C84.276,235.208 81.752,236.396 79.587,236.778 C77.604,237.368 74.887,237.551 72.001,237.551 C65.517,237.551 60.286,235.606 56.496,231.886 C52.708,227.972 50.901,222.68 50.901,216.027 C50.901,209.383 52.89,203.901 57.033,199.98 C61.182,195.868 66.958,193.917 73.991,193.917 C79.047,193.917 83.193,195.285 86.804,198.033 Z M127.748,199.791 C131.353,203.316 133.161,208.794 133.161,215.45 C133.161,222.29 131.353,227.581 127.571,231.494 C123.959,235.606 119.084,237.551 112.772,237.551 C106.283,237.551 101.229,235.606 97.8,231.494 C94.195,227.581 92.391,222.102 92.391,215.45 C92.391,208.986 94.195,203.901 97.981,199.98 C101.767,195.868 106.639,193.917 112.772,193.917 C119.265,193.917 124.136,195.868 127.748,199.791 Z M178.439,195.091 C180.597,194.301 182.765,193.917 185.109,193.917 C189.803,193.917 193.405,195.285 196.111,197.832 C198.633,200.577 200.083,204.092 200.083,208.794 L200.083,236.778 L190.157,236.778 L190.157,210.159 C190.157,204.685 187.634,201.934 182.584,201.934 C181.144,201.934 179.699,202.329 178.252,203.316 C176.988,204.092 176.091,205.084 175.365,206.246 L175.365,236.778 L165.63,236.778 L165.63,208.794 C165.63,206.638 164.909,204.879 163.64,203.701 C162.386,202.527 160.578,201.934 158.231,201.934 C156.964,201.934 155.522,202.329 154.081,203.316 C152.644,204.288 151.557,205.27 150.835,206.246 L150.835,236.778 L141.097,236.778 L141.097,194.701 L147.775,194.701 L149.935,198.423 C152.644,195.285 156.071,193.917 160.578,193.917 C166.161,193.917 170.32,195.491 173.206,198.423 C174.468,197.048 176.091,195.868 178.439,195.091 Z M12.841,220.736 C12.841,214.079 17.71,208.794 23.662,208.794 C29.439,208.794 34.312,214.079 34.312,220.736 C34.312,227.182 29.439,232.471 23.662,232.471 C17.71,232.471 12.841,227.182 12.841,220.736 Z M0.217,196.064 L0.217,235.801 C0.217,240.891 4.182,244.998 8.875,244.998 L213.252,244.998 C217.939,244.998 221.91,240.891 221.91,235.801 L221.91,196.064 C221.91,190.986 217.939,186.673 213.252,186.673 L8.875,186.673 C4.182,186.673 0.217,190.986 0.217,196.064 L0.217,196.064 Z" id="Fill-1" fill="#0076BD" mask="url(#mask-2)"></path>
                    <path d="M309.966,143.818 C308.863,147.232 307.765,150.651 306.443,153.988 C306.3,154.352 304.944,157.968 304.739,157.924 C304.628,157.902 304.518,157.875 304.408,157.852 C302.66,157.48 300.909,157.108 299.161,156.736 C292.202,155.252 285.247,153.769 278.289,152.287 C272.124,150.972 265.957,149.659 259.794,148.344 C259.63,144.991 259.642,141.632 259.49,138.279 C259.334,134.858 259.823,131.46 259.783,128.047 C270.683,130.533 281.586,133.019 292.489,135.504 C298.728,136.927 304.966,138.348 311.206,139.77 C310.772,141.116 310.362,142.461 309.966,143.818 Z M262.269,102.813 C263.761,95.536 264.917,88.191 266.66,80.967 C267.532,77.341 268.617,73.788 269.768,70.243 C270.028,69.443 272.549,61.271 272.811,61.328 C277.865,62.471 282.917,63.612 287.975,64.753 C294.251,66.171 300.531,67.589 306.809,69.006 L261.677,107.149 C261.869,105.702 262.066,104.257 262.269,102.813 Z M281.09,42.299 C284.464,36.509 287.804,30.782 292.664,26.077 C296.423,22.44 302.231,18.608 307.231,22.304 C311.513,25.467 313.842,31.296 315.51,36.142 C317.721,42.563 318.998,49.611 319.596,56.368 C306.011,53.114 292.36,50.131 278.743,47.019 C279.527,45.447 280.308,43.874 281.09,42.299 Z M273.753,114.793 L320.522,72.69 C320.609,81.267 320.341,89.862 319.382,98.389 C318.417,106.969 316.871,115.513 315.104,123.962 C303.707,121.435 292.31,118.909 280.912,116.381 C278.526,115.852 276.139,115.324 273.753,114.793 Z M307.546,0.712 C297.233,-1.48 288.446,4.66 282.302,12.391 C275.23,21.292 270.538,32.134 266.72,42.752 C261.662,56.831 258.103,71.508 255.333,86.196 C252.488,101.305 250.717,116.624 250.213,131.995 C249.964,139.582 249.972,147.201 250.417,154.781 C250.637,158.529 250.981,162.271 251.519,165.989 C251.777,167.767 252.08,169.539 252.432,171.301 C252.609,172.18 252.799,173.058 253,173.932 C253.196,174.129 254.019,173.852 254.239,173.807 C260.805,172.405 267.921,172.07 274.614,172.528 C281.828,173.02 288.492,175.208 294.753,178.793 C296.265,179.658 297.748,180.581 299.187,181.561 C299.932,182.069 300.666,182.589 301.387,183.126 C302.03,183.606 302.561,184.251 303.287,184.613 C305.183,181.615 306.874,178.492 308.411,175.296 C311.496,168.878 313.958,162.184 316.218,155.441 C320.989,141.22 324.648,126.66 327.205,111.883 C329.806,96.86 331.474,81.638 331.964,66.396 C332.38,53.457 331.939,40.215 328.882,27.578 C326.119,16.139 320.207,3.408 307.546,0.712 L307.546,0.712 Z" id="Fill-3" fill="#0076BD" mask="url(#mask-2)"></path>
                </g>
                <path d="M111.01,173.871 L18.837,173.871 C14.864,173.871 11.435,172.499 8.552,169.764 C5.846,167.021 4.407,163.894 4.407,160.369 C4.407,156.449 6.029,151.37 9.456,144.909 L75.476,17.892 L40.844,17.892 C32.006,17.892 25.867,19.453 22.626,22.393 C19.378,25.335 17.574,31.19 17.394,40.398 L6.392,40.398 L6.392,0.668 L89.006,0.668 C101.455,0.668 107.763,5.76 107.763,15.743 C107.763,18.673 106.868,22.191 104.878,25.915 L36.691,156.845 L111.01,156.845 L111.01,173.871" id="Fill-5" fill="#000000"></path>
                <path d="M171.444,144.71 L171.444,120.834 C152.497,122.002 142.936,129.058 142.936,142.361 C142.936,152.926 146.549,158.41 153.764,158.41 C161.519,158.41 167.288,153.716 171.444,144.71 Z M197.954,159.781 L185.328,159.781 C179.923,159.781 175.411,161.143 171.98,164.085 C165.129,169.374 161.7,172.306 161.339,172.499 C157.011,175.237 151.958,176.607 146.365,176.607 C137.35,176.607 129.773,173.675 123.642,167.803 C117.505,161.937 114.44,154.886 114.44,146.664 C114.44,122.594 133.56,109.481 171.444,107.531 L171.444,96.569 C171.444,86.005 170.717,78.372 168.916,73.666 C167.288,68.967 164.229,66.625 160.079,66.625 C155.931,66.625 153.04,68.588 151.781,72.885 C151.601,73.082 150.877,77.584 149.618,86.005 C148.348,94.409 143.302,98.916 134.1,98.916 L119.492,83.849 C119.852,74.649 123.642,67.216 130.854,61.728 C138.255,56.056 147.994,53.322 160.258,53.322 C173.968,53.322 183.706,56.835 189.479,63.494 C195.07,70.346 197.954,81.889 197.954,97.937 L197.954,159.781 L197.954,159.781 Z" id="Fill-6" fill="#000000"></path>
                <path d="M239.266,124.163 C239.266,148.039 245.762,159.781 258.567,159.781 C271.012,159.781 277.149,144.71 277.149,114.761 C277.149,86.005 271.199,71.516 259.104,71.516 C250.989,71.516 244.317,79.542 239.266,95.782 L239.266,124.163 Z M213.292,75.033 C214.195,75.033 215.455,75.033 216.717,75.033 C218.34,75.239 219.424,75.239 219.97,75.239 C227.361,75.239 232.232,74.256 234.944,72.296 C239.448,68.19 244.136,64.085 249.006,59.772 C254.238,55.663 260.194,53.707 266.863,53.707 C278.952,53.707 288.51,58.995 295.545,69.948 C302.578,80.911 306.191,95.979 306.191,115.35 C306.191,135.322 302.398,150.779 295.006,161.742 C287.61,172.499 277.149,177.979 263.801,177.979 C253.698,177.979 245.579,173.871 239.266,165.85 L239.266,212.421 C239.266,216.535 238.005,219.871 235.659,222.604 C233.138,225.345 230.069,226.714 226.463,226.714 C222.67,226.714 219.604,225.345 217.08,222.406 C214.554,219.664 213.292,216.344 213.292,212.421 L213.292,75.033 L213.292,75.033 Z" id="Fill-7" fill="#000000"></path>
                <path d="M342.986,124.163 C342.986,148.039 349.305,159.781 362.29,159.781 C374.731,159.781 380.864,144.71 380.864,114.761 C380.864,86.005 374.731,71.516 362.653,71.516 C354.537,71.516 348.042,79.542 342.986,95.782 L342.986,124.163 Z M317.013,75.033 C317.916,75.033 318.995,75.033 320.439,75.033 C321.885,75.239 322.965,75.239 323.69,75.239 C331.083,75.239 335.953,74.256 338.659,72.296 C343.165,68.19 347.861,64.085 352.545,59.772 C357.957,55.663 363.91,53.707 370.583,53.707 C382.492,53.707 392.055,58.995 399.087,69.948 C406.125,80.911 409.546,95.979 409.546,115.35 C409.546,135.322 405.936,150.779 398.546,161.742 C390.97,172.499 380.864,177.979 367.521,177.979 C357.417,177.979 349.305,173.871 342.986,165.85 L342.986,212.421 C342.986,216.535 341.729,219.871 339.198,222.604 C336.854,225.345 333.79,226.714 330.003,226.714 C326.394,226.714 323.328,225.345 320.801,222.406 C318.275,219.664 317.013,216.344 317.013,212.421 L317.013,75.033 L317.013,75.033 Z" id="Fill-8" fill="#000000"></path>
                <path d="M480.981,125.927 C480.981,107.716 480.443,95.58 479.541,90.11 C477.195,74.649 471.425,66.822 462.587,66.822 C455.727,66.822 450.858,70.729 447.974,78.754 C445.086,86.584 443.643,98.916 443.643,115.937 C443.643,132.372 445.086,144.122 447.617,151.37 C450.5,159.2 455.363,163.111 462.405,163.111 C474.673,163.111 480.981,150.779 480.981,125.927 Z M506.959,115.937 C506.959,156.256 491.986,176.607 462.405,176.607 C432.639,176.607 417.669,156.256 417.669,115.937 C417.669,74.256 432.639,53.322 462.405,53.322 C476.104,53.322 486.934,58.798 495.05,69.948 C502.988,80.911 506.959,96.373 506.959,115.937 L506.959,115.937 Z" id="Fill-9" fill="#000000"></path>
                <path d="M569.916,83.849 C569.916,73.475 564.315,68.389 553.133,68.389 C543.574,68.389 538.889,72.296 538.889,80.518 C538.889,85.608 543.937,91.279 554.038,97.937 C559.091,101.07 565.044,105.178 571.903,109.869 C581.101,118.686 585.789,129.253 585.789,141.189 C585.789,151.556 582.355,160.176 575.504,166.633 C568.649,173.088 559.809,176.213 548.806,176.213 C539.062,176.213 531.126,174.46 525.005,170.739 C518.862,167.021 515.613,162.323 515.613,157.043 C515.613,153.716 517.961,152.148 522.652,152.148 C523.912,152.148 525.176,152.148 526.077,152.343 C533.292,157.634 539.964,160.369 546.096,160.369 C556.382,160.369 561.618,156.256 561.618,148.039 C561.618,143.531 559.63,139.622 555.664,135.897 C554.038,134.151 548.806,130.424 539.964,124.356 C531.126,118.29 524.818,112.81 521.206,107.921 C516.882,102.24 514.714,95.58 514.714,87.953 C514.714,76.994 518.14,68.588 525.176,62.506 C532.033,56.452 541.771,53.322 554.583,53.322 C560.348,53.322 568.649,54.876 579.29,58.02 L579.29,83.849 L569.916,83.849" id="Fill-10" fill="#000000"></path>
                <path d="M6.264,279.016 C7.086,279.273 8.062,279.325 9.345,279.325 C14.069,279.325 16.944,276.962 16.944,272.957 C16.944,269.159 14.274,267.104 9.91,267.104 C8.164,267.104 6.932,267.258 6.264,267.412 L6.264,279.016 Z M0,262.946 C2.311,262.534 5.443,262.226 9.653,262.226 C14.274,262.226 17.612,263.201 19.819,265.05 C21.873,266.744 23.208,269.466 23.208,272.701 C23.208,275.987 22.182,278.657 20.282,280.505 C17.714,283.022 13.812,284.253 9.345,284.253 C8.164,284.253 7.137,284.202 6.264,283.997 L6.264,297.09 L0,297.09 L0,262.946 L0,262.946 Z" id="Fill-11" fill="#0076BD"></path>
                <path d="M56.992,292.572 C63.102,292.572 66.542,286.924 66.542,279.684 C66.542,273.163 63.307,267.001 56.992,267.001 C50.676,267.001 47.39,273.009 47.39,279.889 C47.39,286.77 50.882,292.572 56.94,292.572 L56.992,292.572 Z M56.684,297.655 C46.876,297.655 40.715,290.159 40.715,280.043 C40.715,269.466 47.441,261.918 57.197,261.918 C67.261,261.918 73.217,269.569 73.217,279.427 C73.217,291.032 66.183,297.655 56.735,297.655 L56.684,297.655 L56.684,297.655 Z" id="Fill-12" fill="#0076BD"></path>
                <path d="M98.066,297.09 L89.594,262.483 L96.32,262.483 L99.606,278.195 C100.479,282.406 101.301,286.821 101.866,290.261 L101.968,290.261 C102.533,286.616 103.509,282.508 104.484,278.092 L108.232,262.483 L114.856,262.483 L118.296,278.401 C119.118,282.508 119.888,286.359 120.401,290.107 L120.504,290.107 C121.12,286.256 121.942,282.354 122.866,278.092 L126.46,262.483 L132.878,262.483 L123.534,297.09 L116.807,297.09 L113.213,280.762 C112.34,276.86 111.724,273.574 111.262,269.826 L111.159,269.826 C110.594,273.523 109.927,276.86 108.9,280.814 L104.895,297.09 L98.066,297.09" id="Fill-13" fill="#0076BD"></path>
                <polyline id="Fill-14" fill="#0076BD" points="170.255 281.738 157.213 281.738 157.213 291.905 171.796 291.905 171.796 297.09 150.898 297.09 150.898 262.483 171.025 262.483 171.025 267.669 157.213 267.669 157.213 276.603 170.255 276.603 170.255 281.738"></polyline>
                <path d="M197.415,278.246 L201.164,278.246 C205.425,278.246 208.043,275.987 208.043,272.547 C208.043,268.798 205.425,267.001 201.317,267.001 C199.315,267.001 198.031,267.156 197.415,267.31 L197.415,278.246 Z M191.151,262.996 C193.564,262.534 197.056,262.226 200.701,262.226 C205.682,262.226 209.019,263.048 211.381,264.999 C213.281,266.591 214.359,269.004 214.359,271.982 C214.359,276.45 211.33,279.479 208.043,280.608 L208.043,280.762 C210.56,281.687 212.049,284.1 212.87,287.437 C214,291.75 214.924,295.755 215.591,297.09 L209.122,297.09 C208.608,296.063 207.736,293.24 206.812,288.926 C205.785,284.408 204.193,282.97 200.599,282.867 L197.415,282.867 L197.415,297.09 L191.151,297.09 L191.151,262.996 L191.151,262.996 Z" id="Fill-15" fill="#0076BD"></path>
                <polyline id="Fill-16" fill="#0076BD" points="253.534 281.738 240.492 281.738 240.492 291.905 255.074 291.905 255.074 297.09 234.176 297.09 234.176 262.483 254.304 262.483 254.304 267.669 240.492 267.669 240.492 276.603 253.534 276.603 253.534 281.738"></polyline>
                <path d="M280.745,292.315 C281.618,292.469 282.953,292.469 284.237,292.469 C292.452,292.521 297.33,287.951 297.33,279.17 C297.381,271.572 292.965,267.156 285.058,267.156 C283.056,267.156 281.669,267.31 280.745,267.515 L280.745,292.315 Z M274.43,262.996 C277.254,262.534 280.745,262.226 284.494,262.226 C290.963,262.226 295.379,263.561 298.563,266.232 C301.951,268.952 304.005,273.112 304.005,278.965 C304.005,285.178 301.9,289.747 298.614,292.726 C295.173,295.858 289.679,297.45 282.953,297.45 C279.308,297.45 276.535,297.244 274.43,296.988 L274.43,262.996 L274.43,262.996 Z" id="Fill-17" fill="#0076BD"></path>
                <path d="M324.618,288.411 C324.469,289.205 324.32,290.197 324.32,291.635 C324.32,294.263 325.808,295.701 328.932,295.701 C336.42,295.701 340.685,287.321 340.685,281.321 C340.685,277.997 339.197,274.675 335.23,274.675 C331.064,274.675 326.701,279.039 325.262,285.486 L324.618,288.411 Z M329.974,261.88 L326.601,278.493 L326.701,278.543 C329.081,274.625 332.403,272.741 335.776,272.741 C341.131,272.741 343.016,277.204 343.016,281.369 C343.016,288.461 337.561,297.636 328.684,297.636 C325.411,297.636 322.088,296.297 322.088,291.784 C322.088,290.842 322.287,289.502 322.436,288.511 L327.742,261.88 L329.974,261.88 L329.974,261.88 Z" id="Fill-18" fill="#0A0B09"></path>
                <path d="M362.31,273.286 L365.236,287.618 C365.831,290.544 366.178,292.329 366.475,294.263 L366.625,294.263 C367.319,292.726 368.112,290.941 369.402,288.263 L376.642,273.286 L379.022,273.286 L369.798,292.032 C367.616,296.446 365.484,300.562 362.21,303.884 C359.632,306.562 356.954,307.702 355.714,308 L355.07,306.066 C356.061,305.719 357.896,304.975 359.632,303.537 C361.268,302.198 363.203,299.966 364.74,297.19 C364.938,296.743 364.888,296.495 364.839,296.148 L359.979,273.286 L362.31,273.286" id="Fill-19" fill="#0A0B09"></path>
                <path d="M394.52,290.21 C396.522,291.391 399.655,292.417 402.889,292.417 C406.894,292.417 409.154,290.518 409.154,287.694 C409.154,285.076 407.408,283.534 403.043,281.943 C397.292,279.941 393.647,276.86 393.647,271.931 C393.647,266.232 398.371,261.97 405.918,261.97 C409.667,261.97 412.388,262.791 414.185,263.664 L412.697,268.798 C411.413,268.131 409,267.156 405.765,267.156 C401.759,267.156 400.065,269.261 400.065,271.315 C400.065,273.985 402.068,275.217 406.689,276.962 C412.697,279.273 415.572,282.303 415.572,287.232 C415.572,292.828 411.362,297.604 402.478,297.604 C398.782,297.604 394.982,296.576 393.083,295.448 L394.52,290.21" id="Fill-20" fill="#0076BD"></path>
                <polyline id="Fill-21" fill="#0076BD" points="454.439 281.738 441.397 281.738 441.397 291.905 455.979 291.905 455.979 297.09 435.082 297.09 435.082 262.483 455.209 262.483 455.209 267.669 441.397 267.669 441.397 276.603 454.439 276.603 454.439 281.738"></polyline>
                <path d="M481.6,278.246 L485.348,278.246 C489.61,278.246 492.228,275.987 492.228,272.547 C492.228,268.798 489.61,267.001 485.502,267.001 C483.5,267.001 482.216,267.156 481.6,267.31 L481.6,278.246 Z M475.335,262.996 C477.749,262.534 481.241,262.226 484.886,262.226 C489.867,262.226 493.204,263.048 495.566,264.999 C497.465,266.591 498.543,269.004 498.543,271.982 C498.543,276.45 495.514,279.479 492.228,280.608 L492.228,280.762 C494.745,281.687 496.233,284.1 497.055,287.437 C498.184,291.75 499.109,295.755 499.776,297.09 L493.306,297.09 C492.793,296.063 491.92,293.24 490.996,288.926 C489.969,284.408 488.377,282.97 484.783,282.867 L481.6,282.867 L481.6,297.09 L475.335,297.09 L475.335,262.996 L475.335,262.996 Z" id="Fill-22" fill="#0076BD"></path>
                <path d="M526.473,297.09 L515.28,262.483 L522.161,262.483 L526.884,278.246 C528.219,282.611 529.4,286.667 530.273,290.826 L530.375,290.826 C531.299,286.718 532.583,282.508 533.918,278.297 L538.951,262.483 L545.676,262.483 L533.713,297.09 L526.473,297.09" id="Fill-23" fill="#0076BD"></path>
                <polygon id="Fill-24" fill="#0076BD" points="563.235 297.09 569.55 297.09 569.55 262.483 563.235 262.483"></polygon>
                <path d="M615.401,296.063 C613.913,296.783 610.626,297.604 606.416,297.604 C595.427,297.604 588.752,290.723 588.752,280.198 C588.752,268.798 596.711,261.97 607.289,261.97 C611.448,261.97 614.375,262.791 615.658,263.458 L614.323,268.491 C612.68,267.772 610.37,267.156 607.545,267.156 C600.511,267.156 595.427,271.572 595.427,279.889 C595.427,287.489 599.843,292.315 607.494,292.315 C610.01,292.315 612.68,291.801 614.375,291.082 L615.401,296.063" id="Fill-25" fill="#0076BD"></path>
                <polyline id="Fill-26" fill="#0076BD" points="653.96 281.738 640.918 281.738 640.918 291.905 655.5 291.905 655.5 297.09 634.603 297.09 634.603 262.483 654.731 262.483 654.731 267.669 640.918 267.669 640.918 276.603 653.96 276.603 653.96 281.738"></polyline>
                <path d="M654.66,220.118 C652.606,235.373 638.9,246.122 624.032,244.124 C609.176,242.127 598.807,228.132 600.863,212.884 C602.918,197.633 616.614,186.894 631.468,188.894 C646.328,190.899 656.705,204.869 654.66,220.118" id="Fill-27" fill="#0076BD"></path>
                <path d="M670.125,263.869 L671.084,263.869 C672.205,263.869 673.112,263.496 673.112,262.589 C673.112,261.789 672.525,261.256 671.245,261.256 C670.71,261.256 670.337,261.309 670.125,261.363 L670.125,263.869 Z M670.071,268.778 L668.043,268.778 L668.043,260.029 C668.844,259.922 669.964,259.762 671.405,259.762 C673.058,259.762 673.805,260.029 674.392,260.455 C674.925,260.829 675.298,261.469 675.298,262.323 C675.298,263.39 674.499,264.083 673.485,264.404 L673.485,264.51 C674.338,264.777 674.765,265.47 675.032,266.644 C675.298,267.977 675.512,268.457 675.672,268.778 L673.539,268.778 C673.271,268.457 673.112,267.71 672.845,266.644 C672.685,265.737 672.151,265.31 671.031,265.31 L670.071,265.31 L670.071,268.778 Z M671.405,257.255 C667.617,257.255 664.683,260.403 664.683,264.243 C664.683,268.137 667.617,271.232 671.511,271.232 C675.298,271.284 678.179,268.137 678.179,264.296 C678.179,260.403 675.298,257.255 671.458,257.255 L671.405,257.255 Z M671.511,255.494 C676.472,255.494 680.419,259.335 680.419,264.243 C680.419,269.151 676.472,273.045 671.458,273.045 C666.443,273.045 662.443,269.151 662.443,264.243 C662.443,259.335 666.443,255.494 671.458,255.494 L671.511,255.494 L671.511,255.494 Z" id="Fill-28" fill="#1A1919"></path>
            </g>
        </g>
    </g>
</svg>
